<?xml version="1.0" encoding="UTF-8"?>
<svg id="Layer_2" data-name="Layer 2" xmlns="http://www.w3.org/2000/svg" viewBox="0 0 1425 229.51">
  <defs>
    <style>
      .cls-1 {
        fill: #003538;
        stroke-width: 0px;
      }
    </style>
  </defs>
  <g id="Layer_1-2" data-name="Layer 1">
    <polygon class="cls-1" points="43.58 229.51 0 185.93 71.18 114.75 0 43.58 43.58 0 158.33 114.75 43.58 229.51"/>
    <polygon class="cls-1" points="201.91 229.51 158.33 185.93 229.51 114.75 158.33 43.58 201.91 0 316.67 114.75 201.91 229.51"/>
    <polygon class="cls-1" points="360.25 229.51 316.67 185.93 387.84 114.75 316.67 43.58 360.25 0 475 114.75 360.25 229.51"/>
    <polygon class="cls-1" points="993.58 229.51 950 185.93 1021.18 114.75 950 43.58 993.58 0 1108.33 114.75 993.58 229.51"/>
    <polygon class="cls-1" points="1151.91 229.51 1108.33 185.93 1179.51 114.75 1108.33 43.58 1151.91 0 1266.67 114.75 1151.91 229.51"/>
    <polygon class="cls-1" points="1310.25 229.51 1266.67 185.93 1337.84 114.75 1266.67 43.58 1310.25 0 1425 114.75 1310.25 229.51"/>
    <polygon class="cls-1" points="518.58 229.51 475 185.93 546.18 114.75 475 43.58 518.58 0 633.33 114.75 518.58 229.51"/>
    <polygon class="cls-1" points="676.91 229.51 633.33 185.93 704.51 114.75 633.33 43.58 676.91 0 791.67 114.75 676.91 229.51"/>
    <polygon class="cls-1" points="835.25 229.51 791.67 185.93 862.84 114.75 791.67 43.58 835.25 0 950 114.75 835.25 229.51"/>
  </g>
</svg>