<?xml version="1.0" encoding="UTF-8"?>
<svg id="Layer_2" data-name="Layer 2" xmlns="http://www.w3.org/2000/svg" viewBox="0 0 179.57 49.66">
  <defs>
    <style>
      .cls-1 {
        fill: #fff;
        stroke-width: 0px;
      }
    </style>
  </defs>
  <g id="Layer_1-2" data-name="Layer 1">
    <path class="cls-1" d="m66.59,10.68l.7-.04v-3.49l-7.43.04-4.94-.04v.8c1.84.06,2.26.12,2.26,1.76v9.38c0,1.98-.26,2.26-2.26,2.26v.8l5.42-.04,7.03.04c.25-1.15.7-2.62,1.04-3.57l-.75-.13c-.9,2.2-2.03,2.56-4.31,2.67h-1.25c-2.25,0-2.33-.49-2.33-2.81v-3.36h2.43c1.85,0,2.47.12,2.47,2.03h.73l-.05-1.45-.05-1.02c0-.73.06-2.12.11-2.6h-.72c-.18,1.52-.32,1.93-1.89,1.93h-3.02v-5.64h3.11c2.43,0,3.38.64,3.71,2.49"/>
    <path class="cls-1" d="m69.27,13.08c.91.21,1.34.67,1.34,1.44v6.13c0,.62-.28.64-.99.64h-.54v.85l2.62-.05,2.58.05v-.85h-.54c-.72,0-1.03-.02-1.03-.64v-6.78c.81-.53,1.9-.95,2.56-.95,1.09,0,2,.43,2,1.95v5.77c0,.62-.29.64-.99.64h-.54v.85l2.63-.05,2.58.05v-.85h-.54c-.72,0-1.03-.02-1.03-.64v-5.97c0-2.31-1.18-3.37-2.79-3.37-1.41,0-2.52.74-3.88,1.62v-1.38c0-.29-.22-.26-.31-.23-.85.37-2.22.85-3.14,1.12v.62"/>
    <path class="cls-1" d="m160.83,13.08c.91.21,1.34.67,1.34,1.44v6.13c0,.62-.29.64-.99.64h-.54v.85l2.63-.05,2.58.05v-.85h-.54c-.72,0-1.03-.02-1.03-.64v-6.78c.81-.53,1.9-.95,2.56-.95,1.08,0,2.01.43,2.01,1.95v5.77c0,.62-.29.64-.99.64h-.54v.85l2.62-.05,2.58.05v-.85h-.54c-.72,0-1.03-.02-1.03-.64v-5.97c0-2.31-1.18-3.37-2.79-3.37-1.41,0-2.52.74-3.88,1.62v-1.38c0-.29-.22-.26-.31-.23-.85.37-2.22.85-3.14,1.12v.62"/>
    <path class="cls-1" d="m119.28,13.08c.91.21,1.34.67,1.34,1.44v6.13c0,.62-.29.64-.99.64h-.54v.85l2.62-.05,2.58.05v-.85h-.54c-.72,0-1.03-.02-1.03-.64v-6.78c.81-.53,1.9-.95,2.56-.95,1.09,0,2.01.43,2.01,1.95v5.77c0,.62-.29.64-.99.64h-.54v.85l2.63-.05,2.58.05v-.85h-.54c-.72,0-1.03-.02-1.03-.64v-5.97c0-2.31-1.18-3.37-2.79-3.37-1.41,0-2.52.74-3.88,1.62v-1.38c0-.29-.22-.26-.31-.23-.85.37-2.22.85-3.14,1.12v.62"/>
    <path class="cls-1" d="m91.88,12.52v-.85l-2.28.05-1.92-.05v.84c.38,0,.66.02.86.06.29.06.42.29.42.61s-.16.87-.46,1.57l-1.93,4.47-1.98-4.97c-.4-.95-.38-1.4.05-1.64.12-.06.55-.1.94-.1v-.85l-2.72.05-2.62-.05v.85c.88,0,1.22,0,1.92,1.7l3.41,8.27h.8l3.61-8.39c.42-.99.78-1.59,1.88-1.59"/>
    <path class="cls-1" d="m92.63,12.31v.54c.66.19,1.2.65,1.2,1.55v6.27c0,.62-.28.64-.99.64h-.57v.85l2.65-.05,2.56.05v-.85h-.52c-.72,0-1.03-.02-1.03-.64v-8.89c0-.46-.25-.49-.58-.34-.56.25-1.85.64-2.72.88"/>
    <path class="cls-1" d="m93.62,8.06c0,.67.6,1.28,1.26,1.28s1.26-.59,1.26-1.28-.57-1.24-1.26-1.24c-.66,0-1.26.59-1.26,1.24"/>
    <path class="cls-1" d="m98.82,13.2c.8.21,1.2.52,1.2,1.4v6.06c0,.62-.29.64-.99.64h-.75v.85l2.88-.05,2.56.03h.8s0-.84,0-.84h-1.42c-.7,0-.99-.02-.99-.64v-5.44c0-1.33,1.25-1.8,1.57-1.8.38,0,.55.13.74.27.19.14.4.29.79.29.68,0,1.21-.57,1.21-1.31,0-.93-.84-1.35-1.44-1.35-.98,0-2.18.86-2.88,1.94v-1.62c0-.36-.26-.39-.55-.23-.5.28-1.93.97-2.72,1.27v.51"/>
    <path class="cls-1" d="m106.91,16.96c0,3.51,2.3,5.54,5.62,5.54,3,0,5.56-2.23,5.56-5.63s-2.25-5.54-5.64-5.54c-3.04,0-5.54,2.18-5.54,5.64m2.38-.23c0-2.12.93-4.44,3.18-4.44s3.24,2.53,3.24,4.81c0,2.13-.93,4.44-3.2,4.44s-3.21-2.53-3.21-4.81Z"/>
    <path class="cls-1" d="m141.74,13.04c-.37-1.1-1.24-1.72-2.51-1.72-1.61,0-2.65.74-3.85,1.6,0,0-.02.02-.03.02v-1.17c0-.4-.32-.57-.77-.31-.1.06-1.42.51-2.54.85v.54c.71.21,1.2.65,1.2,1.55v6.27c0,.62-.28.64-.99.64h-.61v.85l2.7-.05,2.58.05v-.85h-.54c-.72,0-1.03-.02-1.03-.64v-6.78c.64-.44,1.82-1.06,2.61-1.06,1.33,0,1.89.81,1.89,2.72v5.11c0,.62-.28.64-.99.64h-.54v.85l2.63-.05,2.6.05v-.85h-.54c-.71,0-1.06-.03-1.06-.64v-6.78c.64-.44,1.82-1.06,2.61-1.06,1.32,0,1.89.81,1.89,2.72v5.11c0,.62-.29.64-.99.64h-.54v.85l2.62-.05,2.51.05v-.85h-.48c-.71,0-1.03-.02-1.03-.64v-5.95c0-2.12-1.08-3.39-2.88-3.39-1.45,0-2.97.99-3.93,1.72"/>
    <path class="cls-1" d="m159.31,15.76l.3-.38c0-2.83-2.03-4.06-4.03-4.06s-4.8,1.6-4.8,6.01c0,1.79.95,5.17,4.55,5.17,2.1,0,3.45-1.42,4.38-2.67l-.51-.49c-1.05,1.05-1.98,1.52-3.04,1.52-1.73,0-3.14-1.67-3.28-3.89-.02-.39-.04-.67-.04-.88,0-.15.01-.24.02-.33h6.43m-6.31-.99c.31-1.53,1.22-2.46,2.5-2.46,1.15,0,1.89.79,1.89,2,0,.27-.16.45-.52.45h-3.86Z"/>
    <path class="cls-1" d="m91.61,33.07c.91.21,1.34.67,1.34,1.44v6.14c0,.61-.29.64-.99.64h-.54v.85l2.62-.05,2.58.05v-.85h-.54c-.72,0-1.03-.03-1.03-.64v-6.78c.81-.53,1.9-.95,2.56-.95,1.09,0,2,.43,2,1.95v5.77c0,.61-.29.64-.99.64h-.54v.85l2.62-.05,2.58.05v-.85h-.54c-.72,0-1.03-.03-1.03-.64v-5.97c0-2.3-1.18-3.37-2.79-3.37-1.41,0-2.52.74-3.88,1.62v-1.37c0-.29-.22-.26-.31-.23-.85.37-2.22.85-3.14,1.13v.62"/>
    <path class="cls-1" d="m90.2,35.74l.3-.38c0-2.83-2.03-4.06-4.02-4.06s-4.8,1.6-4.8,6c0,1.79.95,5.17,4.55,5.17,2.1,0,3.45-1.42,4.38-2.67l-.51-.49c-1.05,1.05-1.98,1.51-3.04,1.51-1.73,0-3.14-1.67-3.28-3.89-.02-.39-.04-.67-.04-.88,0-.15.01-.24.03-.33h6.43m-6.31-.99c.3-1.53,1.22-2.46,2.5-2.46,1.15,0,1.89.79,1.89,2.01,0,.27-.16.45-.52.45h-3.86Z"/>
    <path class="cls-1" d="m172.56,12.39v.56h1.53v7.27c0,1.47.83,2.28,2.32,2.28,1.08,0,2.12-.53,3.17-1.61l-.52-.53c-.53.46-.96.64-1.54.64-.31,0-1.33-.13-1.33-1.82v-6.23h3.34v-1.28h-3.34v-2.33h-.51c-1.06,1.68-2.21,2.51-3.12,3.05"/>
    <path class="cls-1" d="m62.21,26.86c-.31.45-1.22.89-1.52,1,.22.76.08,1.25-.37,2.36,0,.02-3.31,7.99-3.31,7.99-.23.58-.46,1.17-.75,1.73-.58,1.12-.93,1.34-2.23,1.42v.78l2.92-.04,2.96.04v-.79s-.85.02-.85.02c-.85-.04-1.33-.12-1.33-.86,0-.63.36-1.62.64-2.42l.5-1.37h5.47l1.17,2.92c.17.4.37.96.35,1.15-.05.41-.4.56-1.2.56h-.56v.79l3.63-.04,2.77.04v-.79c-.6,0-1.31-.02-1.77-.52-.3-.33-.75-1.51-1.1-2.36l-4.87-11.61h-.56m-.75,3.07l2.4,5.68h-4.58l2.18-5.68Z"/>
    <path class="cls-1" d="m71.59,39.05c-.18.24-.29.66-.29.92,0,1.01.9,1.68,1.83,2.02-1.31.3-2.5,1.19-2.5,2.71,0,1.61,1.55,2.72,4.5,2.72,4.89,0,6.26-3.08,6.26-4.46,0-1.68-1.09-2.57-3.3-2.57-.58,0-2.45,0-3.19-.02-1.49-.05-1.5-.71-1.5-.94,0-.49.3-.77.6-1.05.43.08.88.13,1.24.13,2.89,0,4.41-1.86,4.41-3.69,0-.59-.2-1.16-.51-1.62.36.01,2.2.09,2.2.09v-1.38c-.62.09-1.08.13-1.47.13-.86,0-1.55-.2-2.14-.37-.7-.2-1.55-.35-2.14-.35-2.71,0-4.45,1.45-4.45,3.69,0,1.35.66,2.3,2.09,3.09l-1.63.97m.97,5.13c0-2.05,2.24-2.05,3.72-2.05,2.08,0,3.14.59,3.14,1.75,0,2.08-2.84,2.54-3.93,2.54-1.35,0-2.93-.59-2.93-2.24Zm.81-9.52c0-1.21.71-2.51,2.02-2.51,1.48,0,2.15,1.46,2.15,2.91,0,1.25-.56,2.58-2.12,2.58-1.41,0-2.05-1.25-2.05-2.98Z"/>
    <path class="cls-1" d="m112.68,39.44c-.93.72-1.68,1.11-2.8,1.11-2.75,0-3.78-1.78-3.79-4.43,0-1.79,1.3-3.7,2.95-3.68,1.21,0,1.56.51,1.96,1.05.27.36.53.71.97.71.64,0,.97-.56.96-1.12-.01-1.03-1.32-1.7-3.29-1.72-3.21-.03-5.64,2.55-5.64,6.05,0,2.88,2.09,5.01,4.7,5.01,1.95,0,3.51-1.17,4.54-2.4l-.56-.58"/>
    <path class="cls-1" d="m118.31,41.64c-.08.2-.56,1.45-1.54,3.55-.28-.22-.53-.29-.9-.29-.71,0-1.24.68-1.24,1.28,0,.71.54,1.24,1.26,1.24s1.24-.39,1.6-1.23l5.23-12.27c.42-.97.85-1.42,1.84-1.4v-.86l-1.86.05-2.29-.05-.02.85c.33,0,.6.01.8.07.34.1.5.31.5.77,0,.13-.09.44-.24.84l-1.94,4.74-1.91-4.8c-.19-.48-.37-.94-.34-1.13.04-.24.18-.37.46-.44.2-.05.47-.07.82-.07v-.84s-2.21.05-2.21.05l-2.81-.05v.87c.16,0,.38,0,.55.03.41.1.75.32.93.75l3.31,8.34"/>
    <path class="cls-1" d="m31.4,48.77s-.05.02-.07.03c-.05.01-.1.03-.16.04-.15.04-.3.08-.46.11-.19.05-.38.1-.58.14-.17.04-.35.07-.53.11-.04,0-.09.02-.13.02-.24.05-.5.09-.75.13-.19.03-.38.06-.57.08-.02,0-.04.01-.06.01-.05.01-.1.01-.15.02-.17.02-.33.04-.5.06-.35.04-.7.07-1.05.09h-.07c-.12.01-.24.02-.37.02-.37.02-.75.03-1.12.03-.34,0-.68-.01-1.02-.02-.03,0-.07,0-.1-.01-.13,0-.26-.01-.39-.02-.05,0-.09-.01-.14-.01-.29-.02-.59-.04-.88-.07-.04,0-.08,0-.12,0-.36-.04-.72-.09-1.08-.14-.24-.04-.48-.08-.72-.13-.48-.08-.96-.18-1.43-.3,1.81-4.43,6.26-12.81,6.26-12.81,0,0,4.29,8.13,6.19,12.63Z"/>
    <path class="cls-1" d="m24.83,0C11.12,0,0,11.12,0,24.83c0,.39.01.77.03,1.16.01.21.02.41.04.61.01.32.04.63.08.95.04.36.08.71.14,1.06.01.12.03.24.06.36.08.54.19,1.07.32,1.59.05.25.12.49.18.73.08.31.17.62.27.93.1.34.22.67.34,1,.11.32.23.64.37.96.08.2.15.38.24.57.46,1.06.99,2.09,1.6,3.07.09.15.18.3.28.45.18.28.36.55.56.82.32.46.66.91,1.01,1.34.19.24.39.47.59.7.2.23.4.46.61.68.14.16.3.32.46.48.16.16.32.32.48.47.29.28.59.54.89.81.06.06.13.12.19.16.22.19.44.37.67.55.24.19.48.37.72.56.49.36,1,.71,1.52,1.03.26.16.52.32.79.47.26.15.53.3.8.44.56.3,1.14.58,1.72.83.26.11.52.22.78.32,0,.01,0,.02.02.01,2.11-5.68,4.63-11.35,6.07-14.42-.12-2.07-.37-3.95-.62-5.42-5.71-1.41-9.75-5.31-9.75-5.31l1.62-2.4s5.53,4.45,12.12,4.45,12.11-4.44,12.11-4.44l1.62,2.39s-4.05,3.9-9.76,5.31c-.25,1.45-.5,3.29-.62,5.31,1.41,3.01,3.9,8.62,6,14.27.09-.03.18-.07.26-.11.66-.29,1.3-.6,1.92-.95.32-.17.64-.35.95-.54.67-.4,1.31-.84,1.93-1.3.09-.06.17-.12.25-.18.5-.39.98-.78,1.45-1.2.18-.16.35-.32.52-.48.77-.71,1.49-1.48,2.16-2.3.04-.04.07-.07.1-.11.09-.11.17-.21.25-.32.11-.14.22-.28.34-.43.73-.98,1.39-2.01,1.98-3.09.19-.35.37-.71.55-1.07.19-.4.37-.8.54-1.21.14-.32.27-.65.38-.98.33-.87.6-1.76.82-2.67.05-.21.1-.41.15-.62.01-.07.03-.13.04-.2.02-.09.03-.17.05-.26.07-.35.13-.7.18-1.05,0-.04.02-.08.02-.13.06-.36.1-.72.14-1.08.01-.09.02-.18.02-.27.03-.25.05-.51.06-.76.03-.51.05-1.02.05-1.54C49.66,11.12,38.54,0,24.83,0Zm-5.46,10.11c-.68-1.07-1.88-1.8-3.24-1.82-2.17-.04-3.96,1.69-3.99,3.85-.01.22.01.43.03.63,1.21.31,3.2,1.63,3.3,4.27-1.08-1.43-2.06-1.88-3.71-2.03-2.35-.21-4.36,1.86-4.4,4.16-.02.89.25,1.73.72,2.41-1.09.97-1.79,2.37-1.82,3.94-.05,2.98,1.49,5.1,4.06,5.56,1.41.25,3.73-.08,5.08-1.59-1.22,2.56-3.41,3.56-5.63,3.58-3.65.05-6.52-3.21-6.46-6.86.04-1.97.93-3.73,2.31-4.92-.46-.86-.72-1.85-.7-2.9.05-2.92,2.22-5.31,5.03-5.72-.02-.19-.02-.37-.02-.56.06-3.39,2.85-6.09,6.23-6.02,1.1.01,2.12.32,3,.84,1.04-1.08,2.51-1.73,4.13-1.7,2.77.05,5.03,2.08,5.46,4.72-1.05-1.35-2.68-2.22-4.52-2.25-1.99-.04-3.77.92-4.86,2.41Zm8.9,10.84c.08-.24.12-.49.12-.75,0-1.29-.99-2.33-2.21-2.33s-2.21,1.04-2.21,2.33.99,2.32,2.21,2.32c.07,0,.14,0,.21-.01-.17.06-.35.11-.53.15-1.95.36-3.81-1.01-4.16-3.07-.34-2.05.96-4.01,2.92-4.37,1.94-.36,3.8,1.01,4.15,3.06.16.96-.04,1.91-.5,2.67Zm15.33,4.99c.67-1.75.57-3.79-.44-5.55-1.09-1.89-3-3.02-5.02-3.21.33-1.4.45-2.69-.12-4.08-1-2.42-4.28-3.55-6.52-2.66,3.05-2.17,7.03-1.74,8.74,1.36.52.95.77,2.26.78,3.38,1.6.38,3.05,1.4,3.94,2.94,1.52,2.63.89,5.92-1.36,7.82Z"/>
    <path class="cls-1" d="m24.83,0C11.12,0,0,11.12,0,24.83c0,.39.01.77.03,1.16.01.21.02.41.04.61.01.32.04.63.08.95.04.36.08.71.14,1.06.01.12.03.24.06.36.08.54.19,1.07.32,1.59.05.25.12.49.18.73.08.31.17.62.27.93.1.34.22.67.34,1,.11.32.23.64.37.96.08.2.15.38.24.57.46,1.06.99,2.09,1.6,3.07.09.15.18.3.28.45.18.28.36.55.56.82.32.46.66.91,1.01,1.34.19.24.39.47.59.7.2.23.4.46.61.68.14.16.3.32.46.48.16.16.32.32.48.47.29.28.59.54.89.81.06.06.13.12.19.16.22.19.44.37.67.55.24.19.48.37.72.56.49.36,1,.71,1.52,1.03.26.16.52.32.79.47.26.15.53.3.8.44.56.31,1.13.58,1.72.83.26.11.52.22.78.32,0,.01,0,.02.02.01,2.11-5.68,4.63-11.35,6.07-14.42-.12-2.07-.37-3.95-.62-5.42-5.71-1.41-9.75-5.31-9.75-5.31l1.62-2.4s5.53,4.45,12.12,4.45,12.11-4.44,12.11-4.44l1.62,2.39s-4.05,3.9-9.76,5.31c-.25,1.45-.5,3.29-.62,5.31,1.41,3.01,3.9,8.62,6,14.27.09-.03.18-.07.26-.11.66-.29,1.3-.6,1.92-.95.32-.17.64-.35.95-.54.67-.4,1.31-.84,1.93-1.3.09-.06.17-.12.25-.18.5-.39.98-.78,1.45-1.2.18-.16.35-.32.52-.48.77-.71,1.49-1.48,2.16-2.3.12-.14.23-.28.35-.43.11-.14.22-.28.34-.43.73-.98,1.39-2.01,1.98-3.09.19-.35.37-.71.55-1.07.19-.4.37-.8.54-1.21.14-.32.27-.65.38-.98.33-.87.6-1.76.82-2.67.07-.27.13-.54.19-.82.02-.09.03-.17.05-.26.07-.35.13-.7.18-1.05,0-.04.02-.08.02-.13.06-.36.1-.72.14-1.08.01-.09.02-.18.02-.27.03-.25.05-.51.06-.76.03-.51.05-1.02.05-1.54C49.66,11.12,38.54,0,24.83,0Zm-5.46,10.11c-.68-1.07-1.88-1.8-3.24-1.82-2.17-.04-3.96,1.69-3.99,3.85-.01.22.01.43.03.63,1.21.31,3.2,1.63,3.3,4.27-1.08-1.43-2.06-1.88-3.71-2.03-2.35-.21-4.36,1.86-4.4,4.16-.02.89.25,1.73.72,2.41-1.09.97-1.79,2.37-1.82,3.94-.05,2.98,1.49,5.1,4.06,5.56,1.41.25,3.73-.08,5.08-1.59-1.22,2.56-3.41,3.56-5.63,3.58-3.65.05-6.52-3.21-6.46-6.86.04-1.97.93-3.73,2.31-4.92-.46-.86-.72-1.85-.7-2.9.05-2.92,2.22-5.31,5.03-5.72-.02-.19-.02-.37-.02-.56.06-3.39,2.85-6.09,6.23-6.02,1.1.01,2.12.32,3,.84,1.04-1.08,2.51-1.73,4.13-1.7,2.77.05,5.03,2.08,5.46,4.72-1.05-1.35-2.68-2.22-4.52-2.25-1.99-.04-3.77.92-4.86,2.41Zm8.9,10.84c.08-.24.12-.49.12-.75,0-1.29-.99-2.33-2.21-2.33s-2.21,1.04-2.21,2.33.99,2.32,2.21,2.32c.07,0,.14,0,.21-.01-.17.06-.35.11-.53.15-1.95.36-3.81-1.01-4.16-3.07-.34-2.05.96-4.01,2.92-4.37,1.94-.36,3.8,1.01,4.15,3.06.16.96-.04,1.91-.5,2.67Zm15.33,4.99c.67-1.75.57-3.79-.44-5.55-1.09-1.89-3-3.02-5.02-3.21.33-1.4.45-2.69-.12-4.08-1-2.42-4.28-3.55-6.52-2.66,3.05-2.17,7.03-1.74,8.74,1.36.52.95.77,2.26.78,3.38,1.6.38,3.05,1.4,3.94,2.94,1.52,2.63.89,5.92-1.36,7.82Zm-24.65,23.01c.47.12.95.22,1.43.3.24.05.48.09.72.13.36.05.72.1,1.08.14.04,0,.08,0,.12,0,.29.03.59.05.88.07.05,0,.09.01.14.01.13.01.26.02.39.02.37.02.75.03,1.12.03s.75-.01,1.12-.03c.13,0,.25-.01.37-.02.37-.02.75-.05,1.12-.09.17-.02.33-.04.5-.06.05,0,.1,0,.15-.02.02,0,.04-.01.06-.01.19-.02.38-.05.57-.08.25-.04.51-.08.75-.13.04,0,.09-.01.13-.02.18-.04.36-.07.53-.11.2-.04.39-.09.58-.14.16-.03.31-.07.46-.11.06,0,.11-.03.16-.04.01-.01.03-.01.04-.01s.02-.01.03-.02c-1.9-4.5-6.19-12.63-6.19-12.63,0,0-4.45,8.38-6.26,12.81Z"/>
  </g>
</svg>