<?xml version="1.0" encoding="UTF-8"?>
<svg id="Layer_2" data-name="Layer 2" xmlns="http://www.w3.org/2000/svg" viewBox="0 0 140.4 38.54">
  <defs>
    <style>
      .cls-1 {
        fill: #1fc91f;
        stroke-width: 0px;
      }
    </style>
  </defs>
  <g id="Layer_1-2" data-name="Layer 1">
    <g>
      <polygon class="cls-1" points="115.03 13.13 112.62 10.72 116.56 6.78 112.62 2.85 115.03 .44 121.38 6.78 115.03 13.13"/>
      <polygon class="cls-1" points="123.79 13.13 121.38 10.72 125.32 6.78 121.38 2.85 123.79 .44 130.14 6.78 123.79 13.13"/>
      <polygon class="cls-1" points="132.55 13.13 130.14 10.72 134.07 6.78 130.14 2.85 132.55 .44 138.9 6.78 132.55 13.13"/>
      <g>
        <path class="cls-1" d="m7.89,18.75v10.62H0V.18h9.56c7.93,0,11.9,2.88,11.9,8.63,0,3.38-1.65,6-4.95,7.85l8.51,12.72h-8.95l-6.19-10.62h-2Zm0-5.93h1.48c2.76,0,4.13-1.22,4.13-3.65,0-2.01-1.35-3.01-4.05-3.01h-1.56v6.67Z"/>
        <path class="cls-1" d="m25.38,38.54c-1.44,0-2.8-.14-4.09-.42v-6.13c.43.08.88.17,1.36.27.48.1,1,.15,1.56.15,1.3,0,2.24-.39,2.8-1.18.56-.79.84-2.13.84-4.03V.18h7.93v26.34c0,3.95-.87,6.95-2.6,8.98-1.73,2.03-4.33,3.05-7.79,3.05Z"/>
        <path class="cls-1" d="m46.85,18.75v10.62h-7.89V.18h9.56c7.93,0,11.9,2.88,11.9,8.63,0,3.38-1.65,6-4.95,7.85l8.51,12.72h-8.95l-6.19-10.62h-2Zm0-5.93h1.48c2.76,0,4.13-1.22,4.13-3.65,0-2.01-1.35-3.01-4.05-3.01h-1.56v6.67Z"/>
      </g>
      <g>
        <path class="cls-1" d="m75.71,12.74h-2.92l-1.23-6.58c-.19-.9-.32-1.96-.4-3.19l-.07.64-.35,2.59-1.19,6.54h-2.92L64.35.18h2.29l1.13,7.09c.11.71.25,1.82.44,3.34.14-1.53.28-2.63.4-3.29l1.34-7.14h2.42l1.34,7.14c.18,1.06.32,2.16.42,3.31.2-1.69.35-2.81.44-3.36l1.09-7.09h2.31l-2.26,12.56Z"/>
        <path class="cls-1" d="m84.91,12.74l-.72-3.17h-3.27l-.72,3.17h-2.34L80.97.13h3.17l3.12,12.61h-2.34Zm-1.16-5.24l-.67-2.92c-.04-.18-.13-.62-.27-1.34-.14-.71-.22-1.19-.25-1.43-.07.49-.17,1.03-.28,1.63-.11.59-.41,1.95-.89,4.06h2.37Z"/>
        <path class="cls-1" d="m94.08,9.28c0,1.17-.3,2.07-.89,2.7-.59.62-1.45.94-2.56.94s-2.02-.21-2.79-.64v-2.31c.94.61,1.8.92,2.59.92.45,0,.78-.12,1.01-.37.23-.25.34-.58.34-1s-.13-.8-.4-1.15c-.27-.35-.71-.73-1.33-1.16-.54-.37-.95-.73-1.22-1.07s-.49-.72-.64-1.15c-.15-.42-.23-.92-.23-1.48,0-1.08.3-1.93.9-2.56.6-.63,1.4-.94,2.41-.94s1.89.27,2.77.81l-.77,1.87c-.27-.16-.56-.3-.86-.43s-.62-.19-.97-.19c-.38,0-.67.12-.87.37-.2.25-.3.59-.3,1.02s.12.79.37,1.11c.24.32.67.67,1.28,1.07.82.55,1.39,1.11,1.71,1.68.32.57.49,1.23.49,1.96Z"/>
        <path class="cls-1" d="m99.49,12.74h-2.33V2.23h-2.4V.18h7.14v2.05h-2.4v10.5Z"/>
        <path class="cls-1" d="m108.89,12.74h-5.66V.18h5.66v2.02h-3.32v2.99h3.08v2.03h-3.08v3.48h3.32v2.04Z"/>
        <path class="cls-1" d="m69.47,18.64c-.67,0-1.2.39-1.58,1.18-.39.78-.58,1.88-.58,3.27,0,2.91.76,4.36,2.28,4.36.66,0,1.36-.21,2.09-.64v2.08c-.61.41-1.4.61-2.35.61-1.41,0-2.5-.56-3.26-1.69-.76-1.13-1.14-2.71-1.14-4.75s.39-3.63,1.17-4.77c.78-1.14,1.87-1.71,3.26-1.71.46,0,.9.06,1.32.19.42.13.87.35,1.35.66l-.77,1.9c-.26-.18-.53-.34-.82-.49-.29-.15-.61-.22-.95-.22Z"/>
        <path class="cls-1" d="m73.45,29.33v-12.56h2.34v10.51h3.24v2.04h-5.57Z"/>
        <path class="cls-1" d="m86.17,29.33h-5.66v-12.56h5.66v2.02h-3.32v2.99h3.08v2.03h-3.08v3.48h3.32v2.04Z"/>
        <path class="cls-1" d="m93.95,29.33l-.72-3.17h-3.27l-.72,3.17h-2.34l3.11-12.61h3.17l3.12,12.61h-2.34Zm-1.16-5.24l-.67-2.92c-.04-.18-.13-.62-.27-1.34-.14-.71-.22-1.19-.25-1.43-.07.49-.17,1.03-.28,1.63-.11.59-.41,1.95-.89,4.06h2.37Z"/>
        <path class="cls-1" d="m99.74,24.44v4.89h-2.34v-12.56h3.06c1.29,0,2.25.31,2.86.92.62.61.92,1.55.92,2.81,0,1.59-.54,2.69-1.61,3.32l2.41,5.51h-2.5l-1.98-4.89h-.83Zm0-2.01h.6c.55,0,.94-.16,1.19-.47.24-.31.36-.78.36-1.4s-.13-1.1-.38-1.37c-.25-.27-.65-.41-1.18-.41h-.58v3.64Z"/>
        <path class="cls-1" d="m112.14,29.33l-.72-3.17h-3.27l-.72,3.17h-2.34l3.11-12.61h3.17l3.12,12.61h-2.34Zm-1.16-5.24l-.67-2.92c-.04-.18-.13-.62-.27-1.34-.14-.71-.22-1.19-.25-1.43-.07.49-.17,1.03-.28,1.63-.11.59-.41,1.95-.89,4.06h2.37Z"/>
        <path class="cls-1" d="m124.38,29.33h-2.85l-3.88-9.1h-.11c.14.69.21,1.44.21,2.23v6.86h-2.16v-12.56h2.87l3.85,9h.09c-.11-.6-.16-1.32-.16-2.15v-6.85h2.15v12.56Z"/>
        <path class="cls-1" d="m130.77,18.64c-.67,0-1.2.39-1.58,1.18-.39.78-.58,1.88-.58,3.27,0,2.91.76,4.36,2.28,4.36.66,0,1.36-.21,2.09-.64v2.08c-.61.41-1.4.61-2.35.61-1.41,0-2.5-.56-3.26-1.69-.76-1.13-1.14-2.71-1.14-4.75s.39-3.63,1.17-4.77c.78-1.14,1.87-1.71,3.26-1.71.46,0,.9.06,1.32.19.42.13.87.35,1.35.66l-.77,1.9c-.26-.18-.53-.34-.82-.49-.29-.15-.61-.22-.95-.22Z"/>
        <path class="cls-1" d="m140.4,29.33h-5.66v-12.56h5.66v2.02h-3.32v2.99h3.08v2.03h-3.08v3.48h3.32v2.04Z"/>
      </g>
    </g>
  </g>
</svg>