<?xml version="1.0" encoding="UTF-8"?>
<svg id="Layer_2" data-name="Layer 2" xmlns="http://www.w3.org/2000/svg" xmlns:xlink="http://www.w3.org/1999/xlink" viewBox="0 0 404.63 76.88">
  <defs>
    <style>
      .cls-1 {
        fill: url(#linear-gradient);
      }

      .cls-1, .cls-2, .cls-3, .cls-4 {
        stroke-width: 0px;
      }

      .cls-2 {
        fill: url(#linear-gradient-2);
      }

      .cls-3 {
        fill: url(#linear-gradient-3);
      }

      .cls-4 {
        fill: #1fc91f;
      }
    </style>
    <linearGradient id="linear-gradient" x1="251.9" y1="52.63" x2="239.83" y2="31.73" gradientUnits="userSpaceOnUse">
      <stop offset="0" stop-color="#086023"/>
      <stop offset=".09" stop-color="#0d7a21"/>
      <stop offset=".22" stop-color="#159c20"/>
      <stop offset=".34" stop-color="#1ab51f"/>
      <stop offset=".46" stop-color="#1dc31f"/>
      <stop offset=".55" stop-color="#1fc91f"/>
    </linearGradient>
    <linearGradient id="linear-gradient-2" x1="211.24" y1="4.27" x2="199.13" y2="25.25" xlink:href="#linear-gradient"/>
    <linearGradient id="linear-gradient-3" x1="188.77" y1="63.36" x2="212.86" y2="63.36" xlink:href="#linear-gradient"/>
  </defs>
  <g id="Layer_1-2" data-name="Layer 1">
    <g>
      <g>
        <path class="cls-4" d="m251.83,54.53l-9.35,14.83c-.25.38-.63.78-1.11,1.16-1.03.8-2.14,1.09-3.3,1.16l-10.61-.13-.11,5.34-7.81-13.59,7.73-14.33-.15,6.03,15.86.13,5.32.04h.23c.44,0,.86-.06,1.28-.11.11-.02.23-.02.34-.04.55-.1,1.09-.25,1.62-.46.02-.02.04-.02.06-.02Z"/>
        <path class="cls-1" d="m255.05,49.63c-.15.25-.31.5-.5.76-.08.1-.17.23-.25.34l-.15.15c-.23.23-.48.46-.78.71-1.47,1.3-3.15,1.93-5.04,1.87l-6.3-.04-9.92-17.23,15.48-8.93,7.1,12.44,1.03,1.79c.32.65.53,1.32.65,2,.42,2.23,0,4.22-1.32,6.16Z"/>
        <path class="cls-4" d="m244.46,12.43l-7.58,13.74-16.26.8,5.23-2.98-7.29-12.4-.74-1.26-.04.04-2.86-4.52c-.29-.5-.63-.99-1.01-1.41-.13-.15-.25-.25-.38-.38-.27-.27-.55-.57-.86-.8-.02-.02-.02-.04-.04-.06l17.5.19,1.64.36c1.2.46,2.08,1.18,2.67,2.21l5.4,9.18,4.62-2.71Z"/>
        <path class="cls-2" d="m216.85,12.07l-9.68,17.4-15.65-8.61,7.96-14.35c.4-.57.86-1.09,1.39-1.58,1.68-1.51,3.59-2.16,5.76-2.04l1.53.25,1.11.19c1.85.61,3.21,1.72,4.18,3.4l3.4,5.34Z"/>
        <path class="cls-4" d="m204.14,43.88l-5.17-3.13-10.63,18.32c-.04.08-.1.17-.15.25-.17.31-.29.63-.42.94-.06.17-.17.34-.23.53-.19.55-.34,1.09-.4,1.66l-8.3-15.59c-.19-.4-.34-.92-.44-1.53-.04-.31-.06-.63-.06-.92.02-.88.25-1.7.71-2.48l5.42-9.14-4.6-2.75h15.71l8.55,13.84Z"/>
        <path class="cls-3" d="m212.86,72.3h-15.63c-.84.04-1.81-.13-2.86-.5-2.12-.74-3.61-2.08-4.62-4.16-.21-.38-.4-.8-.55-1.28v-.02c-.1-.34-.21-.71-.29-1.11-.1-.5-.15-1.01-.15-1.49,0-.4.02-.8.08-1.18.02-.08.04-.19.06-.27.06-.31.13-.61.23-.9.04-.13.08-.23.13-.34.15-.38.32-.74.55-1.11l3.19-5.5h19.81l.04,17.88Z"/>
      </g>
      <g>
        <path class="cls-4" d="m35.85,70.37l-11.23-25.94c-.14-.27-.34-.41-.61-.41h-4.29c-.34,0-.51.17-.51.51v25.43c0,.48-.14.85-.41,1.12-.27.27-.65.41-1.12.41H1.53c-.48,0-.85-.14-1.12-.41-.27-.27-.41-.65-.41-1.12V1.53c0-.47.14-.85.41-1.12s.65-.41,1.12-.41h30.95c4.63,0,8.7.95,12.2,2.86,3.51,1.91,6.23,4.58,8.17,8.02,1.94,3.44,2.91,7.41,2.91,11.9s-1.11,8.43-3.32,11.8c-2.21,3.37-5.26,5.84-9.14,7.4-.34.14-.44.38-.31.72l12.97,26.96c.14.41.21.65.21.71,0,.34-.14.61-.41.82-.27.2-.61.31-1.02.31h-17.16c-.88,0-1.46-.37-1.74-1.12ZM19.2,16.95v11.95c0,.34.17.51.51.51h9.6c2.18,0,3.95-.59,5.31-1.79,1.36-1.19,2.04-2.74,2.04-4.65s-.68-3.56-2.04-4.75c-1.36-1.19-3.13-1.79-5.31-1.79h-9.6c-.34,0-.51.17-.51.51Z"/>
        <path class="cls-4" d="m68.72,69.24c-4.08-2.04-7.25-4.9-9.5-8.58-2.25-3.68-3.37-7.97-3.37-12.87v-5.41c0-.48.14-.85.41-1.12.27-.27.65-.41,1.12-.41h16.14c.47,0,.85.14,1.12.41.27.27.41.65.41,1.12v5.31c0,2.45.72,4.43,2.15,5.92,1.43,1.5,3.4,2.25,5.92,2.25s4.46-.75,6.03-2.25c1.57-1.5,2.35-3.47,2.35-5.92V1.53c0-.47.14-.85.41-1.12.27-.27.65-.41,1.12-.41h16.03c.48,0,.85.14,1.12.41.27.27.41.65.41,1.12v46.27c0,4.83-1.16,9.11-3.47,12.82-2.32,3.71-5.55,6.59-9.7,8.63-4.15,2.04-8.92,3.06-14.3,3.06s-10.32-1.02-14.4-3.06Z"/>
        <path class="cls-4" d="m154.41,70.37l-11.23-25.94c-.14-.27-.34-.41-.61-.41h-4.29c-.34,0-.51.17-.51.51v25.43c0,.48-.14.85-.41,1.12-.27.27-.65.41-1.12.41h-16.14c-.48,0-.85-.14-1.12-.41-.27-.27-.41-.65-.41-1.12V1.53c0-.47.14-.85.41-1.12s.65-.41,1.12-.41h30.95c4.63,0,8.7.95,12.2,2.86,3.51,1.91,6.23,4.58,8.17,8.02,1.94,3.44,2.91,7.41,2.91,11.9s-1.11,8.43-3.32,11.8c-2.21,3.37-5.26,5.84-9.14,7.4-.34.14-.44.38-.31.72l12.97,26.96c.14.41.21.65.21.71,0,.34-.14.61-.41.82-.27.2-.61.31-1.02.31h-17.16c-.88,0-1.46-.37-1.74-1.12Zm-16.65-53.41v11.95c0,.34.17.51.51.51h9.6c2.18,0,3.95-.59,5.31-1.79,1.36-1.19,2.04-2.74,2.04-4.65s-.68-3.56-2.04-4.75c-1.36-1.19-3.13-1.79-5.31-1.79h-9.6c-.34,0-.51.17-.51.51Z"/>
      </g>
      <g>
        <path class="cls-4" d="m261.89,69.72c-1.16-1.18-1.75-2.76-1.75-4.74v-13.95c0-1.95.58-3.52,1.75-4.7,1.16-1.18,2.71-1.77,4.64-1.77s3.51.58,4.68,1.75c1.16,1.16,1.75,2.74,1.75,4.72v.64c0,.25-.13.38-.38.38l-1.95.11c-.25,0-.38-.13-.38-.38v-.94c0-1.18-.34-2.13-1.02-2.86-.68-.73-1.58-1.09-2.7-1.09s-2,.36-2.69,1.09c-.69.73-1.03,1.68-1.03,2.86v14.36c0,1.18.34,2.13,1.03,2.86.69.73,1.58,1.09,2.69,1.09s2.03-.36,2.7-1.09c.68-.73,1.02-1.68,1.02-2.86v-.94c0-.25.12-.38.38-.38l1.95.11c.25,0,.38.12.38.38v.6c0,1.98-.59,3.56-1.77,4.74-1.18,1.18-2.73,1.77-4.66,1.77s-3.48-.59-4.64-1.77Z"/>
        <path class="cls-4" d="m277.54,70.81v-25.56c0-.25.12-.38.38-.38h1.92c.25,0,.38.13.38.38v23.45c0,.1.05.15.15.15h8.61c.25,0,.38.12.38.38v1.58c0,.25-.12.38-.38.38h-11.05c-.25,0-.38-.12-.38-.38Z"/>
        <path class="cls-4" d="m303.97,47.21h-8.72c-.1,0-.15.05-.15.15v9.32c0,.1.05.15.15.15h5.49c.25,0,.38.13.38.38v1.62c0,.25-.12.38-.38.38h-5.49c-.1,0-.15.05-.15.15v9.36c0,.1.05.15.15.15h8.72c.25,0,.38.12.38.38v1.58c0,.25-.12.38-.38.38h-11.16c-.25,0-.38-.12-.38-.38v-25.56c0-.25.12-.38.38-.38h11.16c.25,0,.38.13.38.38v1.58c0,.25-.12.38-.38.38Z"/>
        <path class="cls-4" d="m318.97,70.85l-.94-4.66s-.02-.09-.06-.11c-.04-.02-.08-.04-.13-.04h-6.8s-.09.01-.13.04c-.04.03-.06.06-.06.11l-.94,4.66c-.03.23-.16.34-.41.34h-1.92c-.12,0-.22-.04-.28-.11-.06-.07-.08-.17-.06-.3l5.64-25.56c.05-.23.19-.34.41-.34h2.26c.25,0,.39.11.41.34l5.71,25.56v.07c0,.23-.11.34-.34.34h-1.95c-.23,0-.36-.11-.41-.34Zm-7.52-6.99h5.94c.08,0,.11-.05.11-.15l-3.01-14.77c-.02-.08-.05-.11-.07-.11s-.05.04-.07.11l-3.01,14.77c0,.1.04.15.11.15Z"/>
        <path class="cls-4" d="m334.94,70.89l-3.83-11.61c-.02-.08-.07-.11-.15-.11h-3.27c-.1,0-.15.05-.15.15v11.5c0,.25-.13.38-.38.38h-1.92c-.25,0-.38-.12-.38-.38v-25.56c0-.25.12-.38.38-.38h6.2c1.83,0,3.31.67,4.44,2.01,1.13,1.34,1.69,3.09,1.69,5.24,0,1.63-.35,3.03-1.05,4.21-.7,1.18-1.65,2-2.86,2.48-.1.02-.14.09-.11.19l4.1,11.77.04.15c0,.18-.11.26-.34.26h-1.95c-.23,0-.38-.1-.45-.3Zm-7.4-23.53v9.51c0,.1.05.15.15.15h3.38c1.15,0,2.08-.44,2.78-1.34.7-.89,1.05-2.07,1.05-3.55s-.35-2.67-1.05-3.57c-.7-.9-1.63-1.35-2.78-1.35h-3.38c-.1,0-.15.05-.15.15Z"/>
        <path class="cls-4" d="m351.52,70.85l-.94-4.66s-.02-.09-.06-.11c-.04-.02-.08-.04-.13-.04h-6.8s-.09.01-.13.04c-.04.03-.06.06-.06.11l-.94,4.66c-.03.23-.16.34-.41.34h-1.92c-.12,0-.22-.04-.28-.11-.06-.07-.08-.17-.06-.3l5.64-25.56c.05-.23.19-.34.41-.34h2.26c.25,0,.39.11.41.34l5.71,25.56v.07c0,.23-.11.34-.34.34h-1.95c-.23,0-.36-.11-.41-.34Zm-7.52-6.99h5.94c.08,0,.11-.05.11-.15l-3.01-14.77c-.02-.08-.05-.11-.07-.11s-.05.04-.07.11l-3.01,14.77c0,.1.04.15.11.15Z"/>
        <path class="cls-4" d="m368.32,44.88h1.88c.25,0,.38.13.38.38v25.56c0,.25-.13.38-.38.38h-2.22c-.2,0-.34-.1-.41-.3l-7.33-19.43c-.02-.07-.06-.11-.11-.09-.05.01-.08.05-.08.13l.04,19.32c0,.25-.13.38-.38.38h-1.92c-.25,0-.38-.12-.38-.38v-25.56c0-.25.12-.38.38-.38h2.18c.2,0,.34.1.41.3l7.37,19.47c.02.07.06.11.11.09.05-.01.07-.06.07-.13v-19.36c0-.25.13-.38.38-.38Z"/>
        <path class="cls-4" d="m377.06,69.72c-1.16-1.18-1.75-2.76-1.75-4.74v-13.95c0-1.95.58-3.52,1.75-4.7,1.16-1.18,2.71-1.77,4.64-1.77s3.51.58,4.68,1.75c1.16,1.16,1.75,2.74,1.75,4.72v.64c0,.25-.13.38-.38.38l-1.95.11c-.25,0-.38-.13-.38-.38v-.94c0-1.18-.34-2.13-1.02-2.86-.68-.73-1.58-1.09-2.7-1.09s-2,.36-2.69,1.09c-.69.73-1.03,1.68-1.03,2.86v14.36c0,1.18.34,2.13,1.03,2.86.69.73,1.58,1.09,2.69,1.09s2.03-.36,2.7-1.09c.68-.73,1.02-1.68,1.02-2.86v-.94c0-.25.12-.38.38-.38l1.95.11c.25,0,.38.12.38.38v.6c0,1.98-.59,3.56-1.77,4.74-1.18,1.18-2.73,1.77-4.66,1.77s-3.48-.59-4.64-1.77Z"/>
        <path class="cls-4" d="m404.25,47.21h-8.72c-.1,0-.15.05-.15.15v9.32c0,.1.05.15.15.15h5.49c.25,0,.38.13.38.38v1.62c0,.25-.12.38-.38.38h-5.49c-.1,0-.15.05-.15.15v9.36c0,.1.05.15.15.15h8.72c.25,0,.38.12.38.38v1.58c0,.25-.12.38-.38.38h-11.16c-.25,0-.38-.12-.38-.38v-25.56c0-.25.12-.38.38-.38h11.16c.25,0,.38.13.38.38v1.58c0,.25-.12.38-.38.38Z"/>
      </g>
      <g>
        <path class="cls-4" d="m269.23,39.19l-9.03-38.13-.06-.22c0-.26.17-.39.51-.39h3.03c.34,0,.54.17.62.5l6.84,30.11c.04.11.08.17.14.17s.1-.06.14-.17l6.22-30.11c.07-.34.28-.5.62-.5h2.8c.37,0,.58.17.62.5l6.45,30.11c.04.11.07.17.11.17s.08-.06.11-.17l6.67-30.11c.08-.34.28-.5.62-.5h2.92c.37,0,.52.21.45.62l-8.75,38.13c-.07.34-.28.51-.62.51h-2.86c-.34,0-.54-.17-.62-.51l-6.39-30.56c-.04-.11-.08-.17-.11-.17s-.08.06-.11.17l-6.34,30.56c-.04.34-.24.51-.62.51h-2.75c-.34,0-.54-.17-.62-.51Z"/>
        <path class="cls-4" d="m319.69,39.19l-1.85-7.01c-.04-.11-.13-.17-.28-.17h-13.4c-.15,0-.24.06-.28.17l-1.85,7.01c-.08.34-.28.51-.62.51h-2.92c-.19,0-.33-.06-.42-.17s-.12-.26-.08-.45L308.47.95c.08-.34.28-.5.62-.5h3.59c.34,0,.54.17.62.5l10.49,38.13.06.17c0,.3-.19.45-.56.45h-2.97c-.34,0-.54-.17-.62-.51Zm-14.83-10.51c.06.06.12.08.2.08h11.61c.08,0,.14-.03.2-.08.06-.06.06-.1.03-.14l-5.94-22.54c-.04-.08-.08-.11-.11-.11s-.08.04-.11.11l-5.89,22.54s-.03.08.03.14Z"/>
        <path class="cls-4" d="m329.3,37.37c-2.07-1.85-3.11-4.33-3.11-7.43v-1.51c0-.37.19-.56.56-.56h2.75c.37,0,.56.19.56.56v1.29c0,2.09.71,3.78,2.13,5.05,1.42,1.27,3.31,1.91,5.66,1.91,2.2,0,3.94-.6,5.21-1.79,1.27-1.2,1.91-2.77,1.91-4.71,0-1.27-.3-2.37-.9-3.31-.6-.93-1.48-1.79-2.64-2.58-1.16-.78-2.82-1.77-4.99-2.97-2.32-1.23-4.14-2.32-5.47-3.25-1.33-.93-2.4-2.07-3.22-3.42s-1.23-2.99-1.23-4.93c0-3.03.97-5.4,2.92-7.12,1.94-1.72,4.54-2.58,7.79-2.58,3.48,0,6.24.95,8.3,2.86,2.05,1.91,3.08,4.43,3.08,7.57v1.29c0,.37-.19.56-.56.56h-2.8c-.38,0-.56-.19-.56-.56v-1.23c0-2.09-.67-3.78-2.02-5.07s-3.2-1.93-5.55-1.93c-2.09,0-3.73.54-4.91,1.63-1.18,1.09-1.77,2.62-1.77,4.6,0,1.27.28,2.34.84,3.2s1.37,1.65,2.44,2.35c1.06.71,2.7,1.66,4.91,2.86,2.54,1.42,4.49,2.63,5.86,3.62,1.36.99,2.45,2.13,3.25,3.42.8,1.29,1.21,2.87,1.21,4.74,0,3.14-1.01,5.63-3.03,7.49-2.02,1.85-4.77,2.78-8.24,2.78s-6.31-.93-8.38-2.78Z"/>
        <path class="cls-4" d="m376.2,1.01v2.36c0,.37-.19.56-.56.56h-9.14c-.15,0-.22.07-.22.22v34.99c0,.38-.19.56-.56.56h-2.86c-.37,0-.56-.19-.56-.56V4.15c0-.15-.08-.22-.22-.22h-8.8c-.37,0-.56-.19-.56-.56V1.01c0-.37.19-.56.56-.56h22.37c.37,0,.56.19.56.56Z"/>
        <path class="cls-4" d="m404.07,3.93h-16.82c-.15,0-.22.07-.22.22v13.9c0,.15.07.23.22.23h11.33c.37,0,.56.19.56.56v2.36c0,.37-.19.56-.56.56h-11.33c-.15,0-.22.08-.22.22v14.02c0,.15.07.22.22.22h16.82c.37,0,.56.19.56.56v2.35c0,.38-.19.56-.56.56h-20.46c-.38,0-.56-.19-.56-.56V1.01c0-.37.19-.56.56-.56h20.46c.37,0,.56.19.56.56v2.36c0,.37-.19.56-.56.56Z"/>
      </g>
    </g>
  </g>
</svg>